<svg xmlns="http://www.w3.org/2000/svg" xmlns:xlink="http://www.w3.org/1999/xlink" x="0px" y="0px"
	 viewBox="0 0 40 40" style="enable-background:new 0 0 40 40;" xml:space="preserve">
	<circle fill="#1DA1F3" class="st0" cx="20" cy="20" r="20"/>
	<path fill="#ffffff" class="st1" d="M16.5,34.5l-0.9,0.9c-0.4,0.4-1,0.4-1.3,0l-7.7-7.7c-0.4-0.4-0.4-1,0-1.3l7.7-7.7c0.4-0.4,1-0.4,1.3,0l0.9,0.9
		c0.4,0.4,0.4,1,0,1.4l-4.8,4.5h11.4c0.5,0,0.9,0.4,0.9,0.9v1.3c0,0.5-0.4,0.9-0.9,0.9H11.7l4.8,4.5C16.9,33.5,16.9,34.1,16.5,34.5
		L16.5,34.5z"/>
	<path fill="#ffffff" class="st1" d="M23.8,5.3l0.9-0.9c0.4-0.4,1-0.4,1.3,0l7.7,7.7c0.4,0.4,0.4,1,0,1.3L26,21.1c-0.4,0.4-1,0.4-1.3,0l-0.9-0.9
		c-0.4-0.4-0.4-1,0-1.4l4.8-4.5H17.3c-0.5,0-0.9-0.4-0.9-0.9v-1.3c0-0.5,0.4-0.9,0.9-0.9h11.4l-4.8-4.5C23.5,6.3,23.5,5.7,23.8,5.3
		L23.8,5.3z"/>
</svg>
