<?xml version="1.0" encoding="utf-8"?>
<!-- Generator: Adobe Illustrator 20.1.0, SVG Export Plug-In . SVG Version: 6.00 Build 0)  -->
<svg version="1.1" id="Слой_1" xmlns="http://www.w3.org/2000/svg" xmlns:xlink="http://www.w3.org/1999/xlink" x="0px" y="0px"
	 viewBox="0 0 1878 609.1" style="enable-background:new 0 0 1878 609.1;" xml:space="preserve">
<style type="text/css">
	.st0{fill:#FFFFFF;}
	.st1{fill:none;stroke:#EAB046;stroke-width:1.5;stroke-miterlimit:10;}
</style>
<g>
	<path class="st0" d="M927.2,417.5C797,379.2,742.7,576.6,620.5,561.7S432.6,114.9,303.1,380.8C149.7,695.9,83.8,568.7,44.8,524.9
		C23.5,502.9,10.1,492,0,489v120.1h1277.6C1196.1,607.7,1055.9,455.4,927.2,417.5z"/>
	<path class="st0" d="M1710,191.1c-129.7,291.7-145.3,49.2-229.3,220.6s-119.2,195.5-200.3,197.4H1920V40.2
		C1920,40.2,1839.7-100.6,1710,191.1z"/>
</g>
<path fill="#EAB046" class="st1" d="M0,348.6c43.5-35.5,88-31.1,111-25.5c98.1,23.8,160,286,261,286c114,0,137.5-300.5,233.5-308.5
	c130.2-10.8,164.5,131.5,302,148.5c119.2,14.7,270.3-140.6,363-138.3c106.5,2.8,205,169.2,281.3,168.8
	c167.8-1,219.8-414.4,367.3-513"/>
</svg>
